<svg height="384pt" viewBox="0 -32 384 384" width="384pt" xmlns="http://www.w3.org/2000/svg"><path d="m192 0c-66.824219 0-126.753906 42.207031-149.832031 104h-42.167969v112h42.167969c23.078125 61.792969 83.007812 104 149.832031 104 66.894531 0 126.832031-42.207031 149.847656-104h42.152344v-112h-42.167969c-23.078125-61.792969-83.007812-104-149.832031-104zm0 32c49.328125 0 93.984375 28.734375 115.097656 72h-230.195312c21.105468-43.265625 65.769531-72 115.097656-72zm0 256c-49.328125 0-93.992188-28.734375-115.097656-72h230.21875c-21.058594 43.273438-65.722656 72-115.121094 72zm160-152v48h-320v-48zm0 0"/></svg>